<svg width="200" height="230" viewBox="0 0 200 230" fill="none" xmlns="http://www.w3.org/2000/svg">
  <defs>
    <radialGradient id="gu" cx="50%" cy="50%" r="50%" fx="50%" fy="50%">
      <stop offset="0%" style="stop-color:#B488C4;" />
      <stop offset="100%" style="stop-color:#4E2A8E;" />
    </radialGradient>
  </defs>
  <path d="M100 0L200 57.5V172.5L100 230L0 172.5V57.5L100 0Z" fill="url(#gu)"/>
  <g stroke="#FFFFFF" stroke-width="3" stroke-linecap="round" stroke-linejoin="round">
    <circle cx="100" cy="115" r="20" fill="none"/>
    <path d="M82 103L45 80"/>
    <path d="M118 103L155 80"/>
    <path d="M80 127L40 150"/>
    <path d="M120 127L160 150"/>
    <path d="M100 95V35"/>
    <path d="M100 135V195"/>
    <path d="M155 80L180 100"/>
    <path d="M45 80L20 100"/>
  </g>
  <g>
    <circle cx="100" cy="115" r="4" fill="#F9F0FB"/>
    <circle cx="45" cy="80" r="5" fill="#F9F0FB"/>
    <circle cx="155" cy="80" r="5" fill="#F9F0FB"/>
    <circle cx="40" cy="150" r="5" fill="#F9F0FB"/>
    <circle cx="160" cy="150" r="5" fill="#F9F0FB"/>
    <circle cx="100" cy="35" r="5" fill="#F9F0FB"/>
    <circle cx="100" cy="195" r="5" fill="#FFFFFF"/>
    <circle cx="180" cy="100" r="5" fill="#F9F0FB"/>
    <circle cx="20" cy="100" r="5" fill="#F9F0FB"/>
  </g>
</svg>
